<?xml version="1.0" standalone="no"?>
<!DOCTYPE svg PUBLIC "-//W3C//DTD SVG 20010904//EN"
 "http://www.w3.org/TR/2001/REC-SVG-20010904/DTD/svg10.dtd">
<svg version="1.0" xmlns="http://www.w3.org/2000/svg"
 width="500.000000pt" height="500.000000pt" viewBox="0 0 500.000000 500.000000"
 preserveAspectRatio="xMidYMid meet">

<g transform="translate(0.000000,500.000000) scale(0.100000,-0.100000)"
fill="#000000" stroke="none">
<path d="M1244 3934 c-48 -23 -69 -88 -44 -135 21 -39 62 -49 193 -49 115 0
125 -2 145 -22 11 -13 26 -44 32 -70 7 -27 16 -48 20 -48 4 0 8 -10 7 -22 0
-13 40 -151 91 -308 167 -525 283 -901 280 -910 -3 -9 -169 -202 -293 -343
-38 -43 -81 -92 -94 -108 l-24 -29 99 0 c98 0 99 1 119 29 18 27 215 246 329
366 45 47 44 44 -27 -60 -91 -135 -158 -245 -149 -245 8 1 130 162 205 271
l48 69 -76 236 c-41 130 -75 240 -75 244 0 12 133 1 141 -12 5 -7 11 -31 15
-53 7 -48 77 -313 97 -370 l14 -40 674 -3 675 -2 21 72 c28 96 168 608 238
873 31 116 58 218 61 228 5 16 -51 17 -1075 17 l-1080 0 -27 88 c-66 221 -75
243 -118 287 -25 27 -56 47 -81 54 -63 17 -303 14 -341 -5z m836 -781 c24 -87
45 -166 48 -175 4 -16 -4 -18 -71 -18 l-76 0 -11 38 c-5 20 -30 99 -54 175
l-44 137 83 0 82 0 43 -157z m174 130 c11 -55 46 -283 46 -303 0 -16 -7 -20
-34 -20 l-33 0 -21 103 c-25 121 -42 215 -42 234 0 8 13 13 39 13 35 0 40 -3
45 -27z m341 -5 c5 -30 25 -273 25 -304 0 -11 -25 -14 -113 -14 l-112 0 -18
148 c-10 81 -21 159 -24 175 l-5 27 120 0 121 0 6 -32z m265 -5 c0 -20 -5 -99
-12 -175 l-11 -138 -57 0 -57 0 -12 143 c-6 78 -14 157 -18 175 l-5 32 86 0
86 0 0 -37z m354 -20 c-4 -32 -14 -110 -23 -173 l-16 -115 -119 -3 -119 -3 6
38 c3 21 11 100 18 176 l13 137 124 0 123 0 -7 -57z m186 39 c0 -10 -13 -88
-30 -173 -16 -85 -30 -155 -30 -156 0 -8 -70 -2 -70 6 0 5 11 82 25 171 14 89
25 164 25 166 0 2 18 4 40 4 32 0 40 -4 40 -18z m326 1 c-19 -66 -75 -274 -81
-300 l-7 -33 -98 0 -98 0 44 168 c24 92 44 170 44 175 0 4 45 7 101 7 91 0
100 -2 95 -17z m-1372 -650 c14 -93 26 -171 26 -175 0 -20 -40 -6 -45 15 -3
12 -19 87 -35 166 -32 150 -31 160 11 161 13 0 21 -31 43 -167z m284 152 c4
-4 32 -263 32 -302 l0 -33 -103 0 -104 0 -22 163 c-12 89 -21 167 -21 173 0 8
32 10 108 7 59 -3 108 -7 110 -8z m512 -9 c0 -7 -9 -80 -20 -161 -11 -81 -20
-152 -20 -156 0 -5 -50 -9 -111 -9 l-111 0 5 33 c3 17 11 91 17 162 6 72 13
135 14 140 5 16 226 7 226 -9z m121 -166 c-17 -83 -31 -153 -31 -156 0 -2 -10
-4 -21 -4 -18 0 -20 4 -16 33 4 17 13 91 22 162 9 72 20 133 23 137 16 15 47
13 50 -4 2 -9 -11 -85 -27 -168z m276 0 l-42 -155 -88 -3 c-87 -3 -88 -3 -82
20 3 13 20 88 39 168 l33 145 89 5 c74 4 89 2 91 -10 2 -8 -16 -85 -40 -170z
m-730 68 c-4 -62 -7 -137 -7 -166 0 -39 -4 -54 -16 -59 -25 -9 -31 10 -38 125
-4 59 -9 131 -13 160 l-6 52 43 0 43 0 -6 -112z"/>
<path d="M2029 2058 c-35 -40 -67 -75 -72 -76 -4 -2 -12 -12 -17 -23 -11 -19
5 -19 830 -19 l840 0 0 95 0 95 -759 0 -759 0 -63 -72z"/>
<path d="M2062 1769 c-21 -6 -63 -41 -115 -96 -45 -47 -99 -102 -119 -121 -45
-42 -54 -77 -39 -157 15 -81 47 -140 107 -194 66 -60 136 -86 234 -86 147 0
254 65 316 191 25 52 29 70 29 149 0 78 -4 98 -27 145 -32 65 -75 111 -137
148 -37 22 -59 26 -130 29 -47 1 -101 -2 -119 -8z m274 -198 c58 -88 51 -187
-18 -266 -58 -66 -108 -89 -188 -89 -97 1 -170 46 -214 133 -15 29 -30 101
-22 101 3 0 13 -17 21 -37 50 -119 191 -176 301 -122 107 51 152 171 104 277
-24 53 -18 54 16 3z"/>
<path d="M3320 1773 c-15 -3 -77 -59 -153 -137 l-128 -131 4 -72 c5 -94 40
-165 112 -232 70 -64 133 -86 240 -85 148 1 249 63 312 192 24 49 28 69 28
142 0 73 -4 93 -28 142 -34 69 -97 136 -152 163 -40 19 -179 30 -235 18z m300
-247 c15 -41 12 -133 -6 -169 -45 -90 -128 -142 -224 -141 -123 1 -223 87
-235 201 l-5 48 15 -41 c22 -57 91 -127 141 -142 182 -54 348 109 279 275 -8
19 -15 38 -15 41 0 11 40 -47 50 -72z"/>
</g>
</svg>
