<?xml version="1.0" standalone="no"?>
<!DOCTYPE svg PUBLIC "-//W3C//DTD SVG 20010904//EN"
 "http://www.w3.org/TR/2001/REC-SVG-20010904/DTD/svg10.dtd">
<svg version="1.0" xmlns="http://www.w3.org/2000/svg"
 width="500.000000pt" height="500.000000pt" viewBox="0 0 500.000000 500.000000"
 preserveAspectRatio="xMidYMid meet">

<g transform="translate(0.000000,500.000000) scale(0.100000,-0.100000)"
fill="#000000" stroke="none">
<path d="M1955 4219 c-143 -11 -376 -44 -490 -70 -123 -29 -272 -88 -307 -122
-85 -85 -14 -173 194 -242 l80 -26 20 26 c29 37 85 62 200 90 185 44 331 58
608 59 276 0 423 -14 618 -60 119 -28 151 -42 184 -84 l24 -30 69 23 c206 70
285 157 214 234 -54 59 -242 124 -469 163 -261 44 -656 61 -945 39z"/>
<path d="M978 2371 l-3 -1506 -118 -3 -118 -3 3 -52 3 -52 1703 -1 1702 -2 0
54 0 54 -307 2 -308 3 -3 357 -2 356 222 4 c205 4 228 6 283 28 74 29 160 113
201 197 l29 58 3 550 c2 386 0 568 -8 610 -23 118 -91 207 -198 261 -57 29
-59 29 -263 32 l-206 3 -69 -44 c-130 -83 -354 -174 -561 -226 -98 -25 -354
-67 -493 -81 -58 -6 -203 -13 -322 -17 l-218 -6 0 -319 0 -318 455 0 455 0 0
-410 0 -410 -745 0 -745 0 0 811 0 811 43 -6 c183 -27 299 -36 547 -42 465
-11 744 26 1080 141 177 61 368 169 468 264 l42 40 0 187 0 186 -52 -47 c-108
-97 -278 -160 -568 -209 -224 -38 -424 -50 -743 -43 -388 8 -660 44 -881 118
-133 44 -209 83 -267 139 l-39 37 -2 -1506z m2960 82 l2 -543 -205 0 -205 0 0
538 c0 296 3 541 6 544 3 3 94 5 202 4 l197 -1 3 -542z"/>
<path d="M2018 3830 c-175 -15 -439 -67 -453 -90 -7 -11 138 -36 309 -55 170
-19 628 -18 791 1 139 16 295 45 295 54 0 4 -10 11 -22 14 -95 28 -198 50
-288 62 -131 18 -490 26 -632 14z"/>
</g>
</svg>
